<svg xmlns="http://www.w3.org/2000/svg" xmlns:xlink="http://www.w3.org/1999/xlink" width="400" zoomAndPan="magnify" viewBox="0 0 300 299.999988" height="400" preserveAspectRatio="xMidYMid meet" version="1.0">
<defs>
<clipPath id="1dc12fb06a"><path d="M 11 59 L 289 59 L 289 220.992188 L 11 220.992188 Z M 11 59 " clip-rule="nonzero"/>
</clipPath>
</defs>
<g clip-path="url(#1dc12fb06a)"><path fill="#000000" d="M 256.558594 219.402344 C 256.558594 210.746094 256.570312 202.421875 256.550781 194.09375 C 256.542969 191.53125 256.496094 191.628906 253.945312 191.578125 C 241.574219 191.351562 229.207031 191.945312 216.832031 191.175781 C 210.277344 190.769531 203.667969 191.363281 197.082031 191.363281 C 187.90625 191.363281 178.75 191.730469 169.597656 192.378906 C 168.558594 192.453125 168.207031 192.703125 168.195312 193.820312 C 168.164062 198.300781 168.015625 202.78125 167.882812 207.261719 C 167.855469 208.265625 167.722656 209.269531 167.652344 210.273438 C 167.617188 210.789062 167.335938 211.414062 168.066406 211.683594 C 169.769531 212.316406 169.136719 213.417969 168.460938 214.277344 C 166.6875 216.519531 164.390625 218.191406 162.003906 219.734375 C 161.507812 220.054688 160.925781 220.179688 160.46875 219.753906 C 159.429688 218.78125 158.238281 219.378906 157.113281 219.355469 C 156.480469 219.34375 155.839844 219.605469 155.210938 219.574219 C 149.640625 219.320312 144.066406 219.253906 138.496094 219.375 C 137.074219 219.40625 137.042969 218.898438 137.050781 217.628906 C 137.113281 209.933594 137.019531 202.242188 136.949219 194.550781 C 136.925781 192.269531 136.210938 191.605469 133.902344 191.609375 C 124.925781 191.617188 115.933594 191.96875 106.972656 191.582031 C 91.464844 190.90625 75.972656 191.5 60.472656 191.59375 C 55.703125 191.621094 50.996094 192.640625 46.21875 192.464844 C 45.179688 192.425781 44.675781 192.863281 44.710938 193.90625 C 44.882812 199.308594 44.800781 204.707031 44.40625 210.097656 C 44.375 210.546875 44.289062 211.164062 44.53125 211.425781 C 45.054688 211.996094 46.070312 212.285156 45.460938 213.34375 C 44.707031 214.65625 44.46875 216.371094 42.773438 216.988281 C 41.722656 217.371094 40.902344 218.101562 40 218.722656 C 38.898438 219.480469 37.882812 220.972656 36.277344 219.308594 C 35.976562 218.992188 35.03125 219.207031 34.40625 219.308594 C 31.664062 219.75 28.921875 219.496094 26.175781 219.417969 C 22.601562 219.316406 19.023438 219.375 15.449219 219.34375 C 14.828125 219.335938 14.15625 219.507812 13.632812 219.09375 C 13.730469 215.078125 14.164062 211.074219 13.855469 207.128906 C 13.289062 199.882812 13.574219 192.644531 13.496094 185.402344 C 13.421875 178.0625 13.519531 170.722656 13.5 163.378906 C 13.488281 159.171875 14.039062 155 14.082031 150.789062 C 14.164062 143.261719 13.8125 135.742188 13.714844 128.21875 C 13.625 121.351562 13.488281 114.484375 13.101562 107.625 C 13.082031 107.257812 13.0625 106.886719 12.988281 106.527344 C 11.242188 98.261719 12.234375 89.882812 11.96875 81.558594 C 11.820312 76.882812 11.992188 72.199219 11.957031 67.523438 C 11.949219 66.632812 11.9375 65.75 11.632812 64.828125 C 10.890625 62.570312 11.652344 61.375 13.945312 61.375 C 15.457031 61.378906 16.492188 60.421875 17.820312 60.125 C 19.230469 59.808594 20.535156 58.984375 22.28125 59.390625 C 20.742188 59.941406 19.273438 60.296875 17.898438 61.734375 C 20.179688 61.492188 22.0625 61.40625 23.902344 61.070312 C 25.925781 60.699219 27.941406 60.722656 29.929688 61.003906 C 32.035156 61.304688 34.074219 61.570312 35.917969 60.460938 C 35.097656 60.332031 34.144531 60.179688 33.1875 60.027344 C 33.195312 59.980469 33.199219 59.933594 33.207031 59.882812 C 35.359375 59.769531 37.511719 59.636719 39.664062 59.542969 C 41.601562 59.457031 41.773438 59.5625 41.621094 61.464844 C 41.066406 68.515625 41.472656 75.554688 41.761719 82.597656 C 41.800781 83.453125 41.339844 84.445312 42.339844 85.132812 C 42.71875 85.394531 42.480469 85.742188 42.234375 86.042969 C 41.789062 86.582031 41.378906 87.148438 40.828125 87.867188 C 42.175781 88.4375 43.390625 88.335938 44.519531 88.15625 C 53.824219 86.675781 63.1875 87.425781 72.527344 87.367188 C 86.914062 87.273438 101.304688 87.417969 115.6875 87.152344 C 121.808594 87.039062 127.921875 86.320312 134.058594 86.195312 C 134.242188 86.191406 134.425781 86.175781 134.609375 86.164062 C 135.113281 86.128906 135.53125 85.9375 135.460938 85.359375 C 135.398438 84.84375 135.003906 84.566406 134.488281 84.59375 C 131.558594 84.746094 128.609375 84.320312 125.6875 84.722656 C 122.308594 85.191406 118.914062 85.027344 115.523438 85.105469 C 109.566406 85.238281 103.617188 85.757812 97.648438 85.640625 C 88.746094 85.46875 79.824219 85.445312 70.964844 86.296875 C 63.351562 87.03125 55.78125 86.359375 48.191406 86.417969 C 47.566406 86.421875 46.734375 86.757812 45.972656 85.644531 C 48.027344 85.644531 49.832031 85.644531 51.640625 85.644531 C 56.414062 85.644531 61.191406 85.773438 65.960938 85.609375 C 71.078125 85.433594 76.1875 84.859375 81.304688 84.683594 C 86.804688 84.492188 92.335938 84.855469 97.8125 84.457031 C 108.25 83.695312 118.703125 84.3125 129.136719 83.761719 C 130.78125 83.675781 132.4375 83.742188 134.089844 83.773438 C 135.105469 83.789062 135.488281 83.46875 135.519531 82.332031 C 135.574219 80.226562 135.539062 78.125 135.507812 76.019531 C 135.464844 72.996094 135.484375 69.972656 135.5 66.953125 C 135.503906 66.21875 135.4375 65.558594 135.136719 64.835938 C 134.398438 63.054688 135.09375 61.746094 136.910156 61.472656 C 138.296875 61.261719 139.542969 60.746094 140.839844 60.285156 C 142.28125 59.769531 143.722656 59.089844 145.515625 59.3125 C 144.648438 60.085938 143.394531 59.914062 142.578125 61.015625 C 143.738281 61.472656 144.851562 61.429688 145.820312 61.261719 C 149.207031 60.664062 152.5625 60.859375 155.933594 61.28125 C 156.386719 61.339844 156.847656 61.371094 157.304688 61.371094 C 157.746094 61.371094 157.96875 61.03125 157.988281 60.660156 C 158 60.386719 157.699219 60.21875 157.414062 60.195312 C 156.878906 60.144531 156.335938 60.121094 155.792969 59.894531 C 158.539062 59.816406 161.277344 59.722656 164.011719 59.550781 C 164.898438 59.496094 165.269531 59.945312 165.136719 60.9375 C 164.089844 68.621094 164.917969 76.296875 165.289062 83.976562 C 165.304688 84.332031 165.207031 84.851562 165.402344 85.023438 C 166.914062 86.355469 165.527344 86.964844 164.539062 87.675781 C 166.300781 88.605469 167.804688 87.796875 169.296875 87.644531 C 174.699219 87.085938 180.113281 87.328125 185.519531 87.316406 C 197.246094 87.285156 208.972656 87.34375 220.699219 87.332031 C 226.007812 87.328125 231.332031 87.453125 236.621094 87.125 C 240.144531 86.910156 243.691406 86.875 247.207031 86.371094 C 220.828125 86.449219 194.453125 85.625 168.070312 86.550781 C 169.972656 85.984375 171.894531 85.675781 173.851562 85.707031 C 180.003906 85.804688 186.105469 84.929688 192.25 84.699219 C 195.367188 84.585938 198.488281 84.539062 201.566406 84.753906 C 206.96875 85.132812 212.367188 84.882812 217.765625 85.058594 C 222.976562 85.230469 228.203125 85.207031 233.417969 85.148438 C 236.335938 85.117188 239.246094 84.742188 242.160156 84.699219 C 245.640625 84.644531 249.121094 84.847656 252.601562 84.808594 C 254.996094 84.78125 255.019531 84.679688 255.035156 82.3125 C 255.066406 77.445312 255.085938 72.578125 255.054688 67.714844 C 255.046875 66.816406 255.0625 65.910156 254.78125 64.996094 C 253.917969 62.203125 256.367188 59.445312 259.21875 60.015625 C 260.082031 60.1875 260.804688 60.097656 261.621094 59.882812 C 262.65625 59.617188 263.664062 59.011719 264.84375 59.367188 C 264.203125 60.144531 262.929688 59.855469 262.304688 61.035156 C 264.417969 61.347656 266.433594 61.726562 268.464844 61.933594 C 270.742188 62.164062 273.050781 62.140625 275.320312 62.417969 C 277.316406 62.65625 278.734375 61.617188 280.789062 60.738281 C 279.195312 59.859375 277.855469 60.507812 276.652344 59.855469 C 278.929688 59.738281 281.085938 59.628906 283.246094 59.515625 C 284.398438 59.457031 284.878906 59.855469 284.722656 61.140625 C 283.675781 69.839844 284.828125 78.515625 285.003906 87.203125 C 285.070312 90.421875 286.144531 93.695312 284.894531 96.90625 C 286.035156 99.191406 285.539062 101.710938 285.894531 104.109375 C 286.511719 108.296875 286.265625 112.535156 286.300781 116.75 C 286.347656 122.246094 286.648438 127.738281 286.707031 133.222656 C 286.746094 136.574219 286.457031 139.976562 286.394531 143.363281 C 286.234375 151.996094 286.972656 160.597656 287.234375 169.214844 C 287.546875 179.457031 288.09375 189.695312 287.859375 199.953125 C 287.792969 202.886719 287.558594 205.800781 287.421875 208.722656 C 287.367188 209.902344 286.886719 211.140625 288.335938 212.128906 C 289.140625 212.679688 288.5625 213.949219 287.894531 214.5625 C 286.023438 216.285156 284.195312 218.074219 282.066406 219.5 C 281.460938 219.90625 280.660156 220.445312 280.0625 219.820312 C 279.257812 218.980469 278.289062 219.21875 277.503906 219.324219 C 273.554688 219.863281 269.648438 219.394531 265.722656 219.15625 C 264.1875 219.066406 262.632812 219.34375 261.085938 219.394531 C 259.636719 219.4375 258.183594 219.402344 256.558594 219.402344 Z M 209.632812 174.054688 C 209.589844 173.082031 210.304688 173.078125 210.941406 173.109375 C 213.054688 173.21875 215.117188 172.878906 217.210938 172.632812 C 220.835938 172.207031 224.472656 171.777344 228.148438 171.882812 C 230.976562 171.964844 233.8125 171.976562 236.636719 171.84375 C 242.5625 171.5625 248.464844 170.378906 254.425781 171.574219 C 256.289062 171.945312 256.460938 171.675781 256.523438 169.824219 C 256.714844 163.972656 256.457031 158.109375 257.007812 152.261719 C 257.082031 151.464844 257.148438 150.488281 256.742188 149.730469 C 256.417969 149.671875 256.238281 149.609375 256.0625 149.613281 C 236.4375 149.878906 216.8125 149.046875 197.1875 149.507812 C 190.042969 149.671875 182.890625 149.273438 175.75 150.03125 C 173.488281 150.269531 171.261719 150.855469 168.941406 150.738281 C 167.003906 150.636719 166.933594 150.777344 166.980469 152.742188 C 167.097656 157.679688 167.207031 162.617188 167.472656 167.550781 C 167.570312 169.316406 166.796875 171.53125 168.253906 172.765625 C 169.65625 173.953125 171.808594 173.378906 173.617188 173.300781 C 181.035156 172.96875 188.464844 173.363281 195.882812 172.632812 C 199.605469 172.261719 203.394531 172.417969 207.152344 172.722656 C 208.21875 172.808594 209.15625 172.960938 209.632812 174.058594 C 204.050781 173.515625 198.460938 172.445312 192.484375 174.25 C 198.472656 174.15625 204.054688 174.535156 209.632812 174.054688 Z M 53.257812 131.113281 C 52.820312 131.402344 52.308594 131.597656 52.023438 132.160156 C 52.800781 132.363281 53.558594 132.3125 54.320312 132.203125 C 54.246094 131.550781 52.9375 132.125 53.246094 131.101562 C 55.765625 130.695312 58.304688 130.117188 60.847656 130.425781 C 63.140625 130.703125 65.367188 130.582031 67.644531 130.40625 C 70.296875 130.207031 72.972656 130.359375 75.636719 130.359375 C 75.640625 130.472656 75.640625 130.585938 75.644531 130.695312 C 72.585938 131.007812 69.53125 131.316406 66.472656 131.628906 C 70.253906 133.046875 116.332031 132.082031 133.40625 131.1875 C 131.488281 130.625 129.601562 130.398438 127.546875 130.726562 C 125.585938 131.039062 123.503906 130.917969 121.515625 130.660156 C 119.5 130.398438 117.507812 130.132812 115.503906 130.445312 C 111.863281 131.011719 108.214844 130.976562 104.554688 130.828125 C 103.640625 130.792969 102.683594 130.730469 101.808594 130.945312 C 99.277344 131.5625 96.71875 131.296875 94.167969 131.378906 C 93.144531 131.410156 92.15625 131.308594 91.164062 130.355469 C 92.089844 130.355469 92.816406 130.359375 93.539062 130.351562 C 99.398438 130.285156 105.277344 130.519531 111.105469 130.070312 C 119.164062 129.445312 127.195312 129.800781 135.238281 129.972656 C 136.992188 130.011719 137.128906 130.023438 137.117188 128.179688 C 137.089844 123.410156 137.03125 118.640625 136.875 113.875 C 136.679688 107.84375 135.453125 101.878906 135.6875 95.816406 C 135.765625 93.90625 135.578125 91.988281 135.652344 90.078125 C 135.707031 88.679688 135.347656 88.210938 133.804688 88.199219 C 126.65625 88.148438 119.527344 88.785156 112.375 88.660156 C 107.332031 88.570312 102.285156 88.882812 97.238281 88.925781 C 85.867188 89.015625 74.488281 89.101562 63.121094 88.746094 C 55.363281 88.5 47.65625 89.378906 39.792969 89.519531 C 40.089844 93.613281 40.03125 97.710938 40.046875 101.804688 C 40.058594 104 39.597656 104.441406 42.664062 104.332031 C 43.847656 104.292969 45.050781 104.429688 46.230469 104.238281 C 51.679688 103.363281 57.175781 103.132812 62.679688 103.085938 C 80.46875 102.933594 98.253906 103.171875 116.039062 103.234375 C 122.160156 103.257812 128.304688 103.734375 134.421875 102.910156 C 135.0625 102.824219 135.429688 103.265625 135.421875 103.921875 C 135.414062 105.09375 134.425781 105.992188 133.457031 105.425781 C 131.988281 104.570312 130.441406 104.679688 128.949219 104.679688 C 121.15625 104.660156 113.371094 104.78125 105.578125 104.617188 C 96.710938 104.433594 87.832031 104.5625 78.960938 104.683594 C 69.519531 104.808594 60.046875 104.164062 50.648438 105.519531 C 48.148438 105.878906 45.585938 105.699219 43.148438 106.15625 C 43.289062 114.257812 43.03125 122.066406 43.433594 129.867188 C 43.472656 130.617188 43.636719 131.335938 42.492188 131.417969 C 41.914062 131.460938 41.4375 131.992188 41.542969 132.570312 C 41.710938 133.488281 42.566406 133.179688 43.125 133.132812 C 45.128906 132.957031 47.128906 132.695312 49.125 132.453125 C 49.273438 132.433594 49.402344 132.292969 49.542969 132.210938 C 49.207031 131.527344 48.0625 132.121094 47.871094 131.003906 C 49.703125 131.007812 51.496094 131.707031 53.257812 131.113281 Z M 162.890625 61.839844 C 161.148438 61.6875 160.0625 62.417969 159.148438 63.289062 C 158.582031 63.832031 158.023438 63.738281 157.769531 63.351562 C 156.746094 61.792969 155.234375 62.054688 153.824219 62.242188 C 148.828125 62.902344 143.859375 63.714844 138.796875 63.820312 C 136.820312 63.863281 136.378906 64.601562 136.488281 66.753906 C 136.730469 71.507812 137.023438 76.261719 137.253906 81.019531 C 137.484375 85.6875 137.820312 90.355469 137.804688 95.027344 C 137.792969 97.96875 138.082031 100.847656 138.421875 103.75 C 138.789062 106.925781 139.089844 110.125 139.167969 113.316406 C 139.316406 119.363281 139.269531 125.417969 139.335938 131.464844 C 139.363281 133.933594 139.367188 136.398438 139.546875 138.867188 C 139.71875 141.238281 139.515625 143.636719 139.621094 146.015625 C 139.722656 148.390625 139.441406 150.742188 139.515625 153.125 C 139.609375 156.132812 139.117188 159.152344 139.007812 162.175781 C 138.808594 167.914062 138.855469 173.652344 139.003906 179.398438 C 139.164062 185.496094 138.574219 191.621094 138.847656 197.710938 C 139.144531 204.414062 139.121094 211.113281 139.144531 217.902344 C 139.589844 217.925781 139.945312 217.964844 140.304688 217.964844 C 144.890625 217.949219 149.476562 217.8125 154.054688 218.371094 C 155.679688 218.570312 157.347656 218.425781 158.996094 218.4375 C 159.773438 218.445312 160.222656 218.132812 160.148438 217.296875 C 159.957031 215.105469 160.285156 212.902344 160.128906 210.730469 C 159.316406 199.390625 159.617188 188.011719 158.972656 176.667969 C 158.890625 175.207031 159.171875 173.710938 158.972656 172.277344 C 158.21875 166.808594 158.453125 161.292969 158.15625 155.808594 C 157.75 148.308594 157.945312 140.769531 158.082031 133.246094 C 158.28125 122.164062 158.917969 111.085938 157.917969 100.011719 C 157.789062 98.5625 157.496094 97.09375 157.613281 95.664062 C 158.226562 88.066406 157.992188 80.460938 158.03125 72.859375 C 158.039062 70.996094 158.023438 69.132812 158.734375 67.019531 C 159.171875 68.0625 159.207031 68.851562 159.226562 69.652344 C 159.34375 73.949219 159.40625 78.246094 159.617188 82.539062 C 159.941406 89.125 158.933594 95.726562 160.015625 102.308594 C 161.300781 110.136719 160.761719 118.042969 160.542969 125.90625 C 160.332031 133.6875 160.21875 141.46875 160.273438 149.246094 C 160.335938 157.75 160.785156 166.25 161.042969 174.753906 C 161.160156 178.609375 160.96875 182.488281 161.359375 186.308594 C 161.882812 191.425781 161.976562 196.546875 162.089844 201.671875 C 162.203125 206.6875 162.117188 211.710938 162.117188 217.21875 C 164.4375 215.640625 166.847656 214.867188 165.789062 211.753906 C 165.679688 211.433594 165.820312 211.027344 165.851562 210.660156 C 166.25 205.449219 166.160156 200.230469 166.140625 195.011719 C 166.136719 193.6875 166.277344 192.429688 164.394531 192.324219 C 163.65625 192.28125 163.433594 191.574219 163.226562 190.945312 C 162.902344 189.953125 162.996094 188.949219 163.070312 187.941406 C 163.339844 184.203125 163.359375 180.453125 163.167969 176.71875 C 163.117188 175.738281 162.84375 175.226562 163.941406 174.578125 C 165.1875 173.84375 165.914062 172.558594 165.59375 170.847656 C 165.347656 169.507812 165.472656 168.105469 165.390625 166.734375 C 165.113281 162.269531 164.773438 157.804688 164.558594 153.335938 C 164.5 152.066406 164.914062 150.886719 163.078125 150.367188 C 162.234375 150.128906 161.894531 148.882812 161.871094 147.777344 C 161.785156 143.824219 161.90625 139.886719 162.511719 135.980469 C 162.667969 134.984375 162.585938 133.734375 163.980469 133.265625 C 164.554688 133.070312 164.464844 132.34375 164.464844 131.796875 C 164.464844 123.898438 164.464844 116 164.449219 108.101562 C 164.445312 107.578125 164.644531 106.84375 164.082031 106.589844 C 162.371094 105.820312 162.800781 104.332031 162.8125 103.03125 C 162.84375 99.269531 163.113281 95.441406 162.238281 91.800781 C 161.707031 89.601562 161.847656 88.152344 163.507812 86.691406 C 164.101562 86.171875 165.011719 85.25 163.15625 84.839844 C 162.269531 84.644531 162.304688 83.554688 162.265625 82.714844 C 162.105469 79.429688 162.226562 76.144531 162.371094 72.859375 C 162.535156 69.21875 162.714844 65.578125 162.890625 61.839844 Z M 35.34375 66.140625 C 35.6875 69 35.671875 71.929688 35.832031 74.847656 C 36.097656 79.773438 36.570312 84.699219 36.207031 89.664062 C 35.988281 92.664062 35.785156 95.71875 36.164062 98.734375 C 36.933594 104.824219 37.328125 110.945312 37.085938 117.0625 C 36.667969 127.609375 36.894531 138.15625 36.699219 148.699219 C 36.585938 154.753906 36.945312 160.789062 37.109375 166.828125 C 37.207031 170.484375 37.113281 174.152344 37.4375 177.808594 C 37.792969 181.820312 38.242188 185.835938 38.347656 189.859375 C 38.554688 197.917969 38.550781 205.980469 38.644531 214.042969 C 38.660156 215.070312 38.75 216.089844 38.816406 217.332031 C 39.890625 216.660156 40.5 215.980469 41.386719 215.636719 C 42.128906 215.34375 42.828125 214.628906 42.519531 213.671875 C 41.796875 211.402344 42.316406 209.132812 42.429688 206.875 C 42.640625 202.601562 42.707031 198.332031 42.625 194.058594 C 42.613281 193.417969 42.675781 192.585938 41.808594 192.582031 C 39.9375 192.570312 40.117188 191.28125 40.113281 190.097656 C 40.101562 185.808594 40.128906 181.515625 40.101562 177.222656 C 40.097656 176.015625 39.992188 174.886719 41.269531 174.097656 C 41.996094 173.65625 42.101562 172.742188 42.070312 171.871094 C 41.832031 165.289062 41.621094 158.707031 41.382812 152.128906 C 41.363281 151.59375 41.289062 150.96875 40.5625 150.902344 C 39.863281 150.839844 39.003906 151.238281 38.570312 150.414062 C 38.199219 149.707031 38.78125 149 38.839844 148.28125 C 38.882812 147.734375 38.914062 147.183594 38.917969 146.632812 C 38.945312 142.597656 39.035156 138.5625 38.9375 134.53125 C 38.914062 133.558594 39.175781 132.96875 39.835938 132.417969 C 40.835938 131.578125 41.023438 130.511719 41.007812 129.238281 C 40.917969 122.359375 40.902344 115.480469 40.898438 108.601562 C 40.898438 107.332031 41.167969 106.089844 39.476562 105.550781 C 38.710938 105.308594 38.621094 104.375 38.6875 103.636719 C 39.058594 99.421875 38.492188 95.222656 38.484375 91.011719 C 38.480469 89.421875 38.316406 87.957031 40.050781 86.976562 C 40.902344 86.492188 41.296875 85.480469 39.886719 84.941406 C 38.933594 84.574219 38.734375 83.753906 38.710938 82.945312 C 38.574219 77.457031 38.601562 71.972656 39.171875 66.5 C 39.335938 64.9375 39.734375 63.320312 39.296875 61.761719 C 37.851562 61.660156 36.855469 62.171875 35.914062 62.96875 C 35.371094 63.433594 34.546875 63.949219 34.019531 63.078125 C 33.1875 61.707031 31.9375 62.046875 30.835938 62.191406 C 25.667969 62.871094 20.503906 63.589844 15.292969 63.953125 C 13.4375 64.078125 12.988281 64.664062 13.082031 66.578125 C 13.308594 71.226562 13.597656 75.871094 13.847656 80.515625 C 14.074219 84.726562 14.335938 88.9375 14.476562 93.148438 C 14.617188 97.34375 14.28125 101.546875 15.035156 105.730469 C 15.472656 108.148438 15.699219 110.632812 15.722656 113.09375 C 15.765625 117.113281 16.054688 121.121094 16.003906 125.152344 C 15.917969 132.472656 16.046875 139.800781 16.171875 147.125 C 16.191406 148.441406 15.6875 149.746094 15.902344 150.96875 C 16.230469 152.804688 16.34375 154.628906 16.035156 156.410156 C 15.492188 159.574219 15.351562 162.800781 15.417969 165.941406 C 15.605469 174.617188 15.46875 183.292969 15.527344 191.964844 C 15.585938 200.027344 15.691406 208.089844 15.679688 216.152344 C 15.675781 217.621094 16.113281 218.039062 17.539062 217.988281 C 22.585938 217.800781 27.625 218.03125 32.652344 218.558594 C 33.371094 218.632812 34.117188 218.484375 34.847656 218.507812 C 36.296875 218.5625 36.699219 217.863281 36.660156 216.480469 C 36.453125 209.152344 36.464844 201.816406 36.136719 194.5 C 35.746094 185.875 35.0625 177.257812 35.152344 168.621094 C 35.238281 160.9375 34.402344 153.285156 34.605469 145.597656 C 34.765625 139.660156 34.59375 133.722656 34.824219 127.777344 C 35.097656 120.644531 35.316406 113.503906 34.949219 106.359375 C 34.738281 102.25 33.695312 98.203125 33.964844 94.0625 C 34.136719 91.417969 34.558594 88.796875 34.570312 86.128906 C 34.605469 79.484375 34.46875 72.828125 35.34375 66.140625 Z M 258.671875 217.945312 C 261.070312 217.945312 263.269531 218.019531 265.460938 217.929688 C 269.421875 217.765625 273.324219 218.621094 277.273438 218.53125 C 279.617188 218.476562 279.78125 218.273438 279.710938 215.976562 C 279.53125 209.941406 279.324219 203.902344 279.140625 197.867188 C 278.816406 187.246094 278.53125 176.625 278.175781 166.003906 C 278.019531 161.347656 277.585938 156.699219 277.550781 152.046875 C 277.449219 139.59375 277.425781 127.140625 278.230469 114.699219 C 278.378906 112.441406 278.199219 110.140625 277.949219 107.882812 C 277.515625 103.960938 277.09375 100.015625 277.246094 96.097656 C 277.644531 85.785156 277.21875 75.453125 277.996094 65.15625 C 278.105469 63.691406 277.472656 63.386719 276.5 63.097656 C 275.988281 62.945312 275.410156 63.027344 274.863281 63.003906 C 269.722656 62.746094 264.628906 63.597656 259.5 63.707031 C 259.136719 63.71875 258.773438 63.800781 258.410156 63.855469 C 256.394531 64.160156 255.945312 64.722656 256.140625 66.800781 C 256.21875 67.617188 256.324219 68.421875 256.339844 69.253906 C 256.417969 73.832031 256.375 78.433594 256.789062 82.988281 C 257.164062 87.097656 257.375 91.210938 257.441406 95.320312 C 257.472656 97.421875 257.382812 99.542969 257.675781 101.609375 C 258.675781 108.617188 258.8125 115.660156 258.816406 122.714844 C 258.820312 127.761719 258.640625 132.824219 258.980469 137.847656 C 259.15625 140.394531 259.011719 142.941406 259.273438 145.484375 C 259.523438 147.902344 259.09375 150.339844 259.066406 152.773438 C 259.023438 156.523438 258.585938 160.269531 258.515625 164.019531 C 258.414062 169.765625 258.492188 175.515625 258.46875 181.265625 C 258.445312 186.84375 258.160156 192.429688 258.410156 197.992188 C 258.707031 204.566406 258.601562 211.128906 258.671875 217.945312 Z M 166.679688 105.875 C 166.15625 106.675781 166.523438 107.316406 166.554688 107.925781 C 166.910156 114.613281 166.445312 121.316406 167.03125 128 C 167.238281 130.371094 167.191406 130.371094 169.699219 130.382812 C 170.246094 130.382812 170.796875 130.433594 171.34375 130.441406 C 175.261719 130.511719 179.144531 131.230469 183.078125 131.035156 C 188.925781 130.746094 194.777344 130.78125 200.625 131.015625 C 201.902344 131.066406 203.21875 131.449219 204.445312 131.246094 C 210.71875 130.207031 217.023438 130.179688 223.351562 130.261719 C 227.367188 130.308594 231.382812 130.15625 235.347656 129.300781 C 237.511719 128.832031 239.738281 129.0625 241.902344 129.457031 C 242.628906 129.589844 243.335938 129.609375 244.050781 129.695312 C 247.730469 130.140625 251.332031 128.894531 255 129.269531 C 256.304688 129.40625 256.726562 128.742188 256.699219 127.457031 C 256.550781 120.582031 256.875 113.699219 255.964844 106.851562 C 255.707031 104.90625 255.59375 104.761719 253.5625 104.726562 C 244.953125 104.578125 236.34375 104.851562 227.726562 104.628906 C 219.582031 104.421875 211.421875 104.546875 203.273438 104.648438 C 195.386719 104.75 187.503906 104.597656 179.617188 104.828125 C 175.300781 104.949219 171.082031 105.988281 166.679688 105.875 Z M 47.285156 172.898438 C 48.011719 172.816406 48.378906 172.792969 48.738281 172.730469 C 51.113281 172.308594 53.480469 173.085938 55.863281 172.75 C 62.667969 171.796875 69.5625 172.496094 76.375 171.6875 C 76.824219 171.632812 77.296875 171.683594 77.746094 171.753906 C 79.570312 172.03125 81.394531 172.039062 83.230469 171.929688 C 85.40625 171.804688 87.59375 171.816406 89.765625 171.648438 C 94.089844 171.320312 98.363281 172.421875 102.667969 172.101562 C 108.328125 171.679688 114.019531 172.796875 119.660156 171.695312 C 120.101562 171.609375 120.574219 171.6875 121.03125 171.703125 C 124.683594 171.800781 128.339844 171.996094 131.992188 171.976562 C 136.90625 171.953125 136.902344 171.882812 136.960938 167.003906 C 136.972656 166.269531 136.996094 165.539062 137.003906 164.804688 C 137.0625 160.769531 137.019531 156.734375 137.441406 152.714844 C 137.582031 151.394531 137.039062 150.839844 135.78125 150.816406 C 134.964844 150.800781 133.777344 151.09375 133.40625 150.675781 C 131.996094 149.070312 130.214844 149.570312 128.605469 149.601562 C 111.085938 149.957031 93.574219 148.964844 76.058594 149.496094 C 68.542969 149.722656 61.007812 149.265625 53.507812 150.097656 C 50.78125 150.398438 48.074219 150.882812 45.304688 150.773438 C 44.089844 150.722656 43.304688 151.167969 43.28125 152.703125 C 43.210938 157.664062 43.816406 162.585938 44.085938 167.523438 C 44.222656 170.089844 44.941406 172.613281 42.40625 175.042969 C 46.316406 174.699219 49.664062 174.402344 53.167969 174.09375 C 51.421875 172.539062 49.304688 173.742188 47.285156 172.898438 Z M 90.625 133.976562 C 90.625 133.945312 90.625 133.910156 90.625 133.878906 C 85.054688 133.878906 79.472656 134.066406 73.910156 133.835938 C 63.179688 133.398438 52.476562 133.527344 41.78125 134.476562 C 40.554688 134.585938 39.925781 134.917969 40.054688 136.28125 C 40.417969 140.121094 40.558594 143.96875 40.402344 147.824219 C 40.363281 148.753906 40.820312 149.117188 41.757812 149.085938 C 43.953125 149.011719 46.152344 149.082031 48.351562 148.878906 C 52.175781 148.53125 56.007812 148.195312 59.84375 148.039062 C 63.691406 147.886719 67.542969 147.96875 71.394531 147.941406 C 78.359375 147.886719 85.324219 147.636719 92.28125 147.8125 C 102.351562 148.066406 112.417969 148.34375 122.492188 148.195312 C 125.6875 148.144531 128.90625 148.148438 132.074219 148.5 C 133.492188 148.65625 134.753906 148.585938 136.105469 148.308594 C 137.191406 148.082031 137.625 147.667969 137.554688 146.464844 C 137.347656 142.808594 137.300781 139.144531 137.167969 135.484375 C 137.09375 133.460938 137.039062 133.582031 135.046875 133.015625 C 132.90625 132.410156 130.898438 133.285156 128.816406 133.273438 C 123.226562 133.242188 117.632812 133.273438 112.042969 133.386719 C 104.902344 133.527344 97.765625 133.777344 90.625 133.976562 Z M 136.941406 190.496094 C 136.941406 185.359375 136.988281 180.699219 136.914062 176.042969 C 136.890625 174.605469 136.257812 174.140625 134.742188 174.273438 C 133.566406 174.375 132.414062 174.894531 131.25 174.890625 C 127.214844 174.886719 123.195312 175.152344 119.164062 175.304688 C 112.132812 175.570312 105.09375 175.539062 98.054688 175.855469 C 89.464844 176.238281 80.824219 176.3125 72.246094 175.820312 C 62.3125 175.253906 52.449219 175.761719 42.5625 176.289062 C 41.554688 176.34375 41.015625 176.582031 41.15625 177.730469 C 41.621094 181.558594 41.726562 185.410156 41.722656 189.265625 C 41.71875 190.210938 42.148438 190.640625 43.007812 190.648438 C 45.109375 190.667969 47.222656 190.777344 49.3125 190.601562 C 55.984375 190.046875 62.65625 189.722656 69.355469 189.820312 C 73.484375 189.882812 77.625 189.964844 81.738281 189.707031 C 85.265625 189.488281 88.824219 189.261719 92.308594 189.492188 C 96.328125 189.757812 100.371094 189.976562 104.386719 190.097656 C 112.707031 190.347656 121.046875 190.128906 129.378906 190.160156 C 131.84375 190.171875 134.28125 188.964844 136.941406 190.496094 Z M 196.613281 133.871094 C 190.507812 133.734375 185.191406 133.535156 179.875 133.523438 C 175.378906 133.515625 170.882812 133.746094 166.449219 134.539062 C 163.933594 134.992188 163.90625 135.085938 163.679688 137.480469 C 163.351562 140.957031 163.515625 144.441406 163.480469 147.925781 C 163.46875 149.027344 164.023438 149.386719 164.992188 149.390625 C 165.539062 149.394531 166.109375 149.480469 166.632812 149.367188 C 171.496094 148.324219 176.460938 148.09375 181.378906 148.058594 C 196.765625 147.945312 212.15625 147.523438 227.542969 148.171875 C 232.472656 148.378906 237.417969 148.195312 242.355469 148.199219 C 246.742188 148.203125 251.132812 148.1875 255.523438 148.234375 C 256.832031 148.246094 257.226562 147.867188 257.121094 146.449219 C 256.851562 142.804688 256.808594 139.140625 256.710938 135.488281 C 256.640625 132.914062 256.65625 132.820312 254.066406 133.003906 C 242.722656 133.804688 231.351562 133.101562 219.992188 133.777344 C 211.960938 134.257812 203.878906 133.871094 196.613281 133.871094 Z M 240.105469 190.105469 C 242.023438 190.105469 243.945312 190.109375 245.863281 190.105469 C 248.96875 190.101562 252.074219 190.066406 255.179688 190.113281 C 256.207031 190.128906 256.664062 189.863281 256.644531 188.734375 C 256.578125 184.699219 256.570312 180.667969 256.597656 176.632812 C 256.605469 175.347656 256.132812 174.753906 254.820312 174.886719 C 254.367188 174.933594 253.90625 174.898438 253.449219 174.910156 C 246.429688 175.097656 239.414062 175.441406 232.398438 175.433594 C 224.515625 175.425781 216.65625 176.1875 208.773438 176.011719 C 204.109375 175.910156 199.433594 176.144531 194.78125 175.910156 C 186.636719 175.507812 178.511719 175.121094 170.371094 176 C 169.246094 176.121094 168.089844 176.125 166.882812 175.753906 C 165.3125 175.269531 164.417969 176.277344 164.46875 177.980469 C 164.574219 181.535156 165.199219 185.0625 164.886719 188.652344 C 164.734375 190.40625 165.023438 190.488281 166.96875 190.582031 C 168.339844 190.644531 169.699219 190.785156 171.082031 190.65625 C 175.824219 190.222656 180.566406 189.84375 185.335938 189.824219 C 191.835938 189.796875 198.335938 190.046875 204.835938 189.613281 C 207.734375 189.417969 210.667969 189.152344 213.546875 189.398438 C 222.394531 190.15625 231.242188 190.25 240.105469 190.105469 Z M 217.417969 103.082031 C 223.695312 103.234375 233.503906 103.359375 243.316406 103.269531 C 246.707031 103.238281 250.101562 103.261719 253.496094 103.285156 C 254.523438 103.289062 255.210938 103.1875 255.167969 101.804688 C 255.039062 97.773438 255.035156 93.734375 255.03125 89.695312 C 255.03125 88.542969 254.632812 88.035156 253.417969 88.089844 C 247.109375 88.375 240.800781 88.535156 234.480469 88.589844 C 224.578125 88.675781 214.675781 88.894531 204.769531 88.992188 C 192.308594 89.117188 179.839844 88.054688 167.382812 89.25 C 166.578125 89.328125 165.753906 89.171875 164.9375 89.375 C 163.304688 89.78125 163.125 90.039062 163.3125 91.808594 C 163.699219 95.441406 164.722656 98.992188 164.476562 102.710938 C 164.351562 104.640625 165.125 105.199219 166.988281 104.554688 C 168.136719 104.15625 169.269531 103.953125 170.453125 103.816406 C 176.847656 103.085938 183.265625 103.074219 189.6875 103.082031 C 197.753906 103.085938 205.820312 103.082031 217.417969 103.082031 Z M 282.238281 217.039062 C 284.09375 215.53125 286.140625 214.363281 285.410156 211.292969 C 285.082031 209.917969 285.386719 208.378906 285.464844 206.917969 C 285.683594 202.921875 285.730469 198.925781 285.652344 194.925781 C 285.5625 190.351562 285.554688 185.777344 285.363281 181.207031 C 285.160156 176.28125 285.324219 171.34375 284.929688 166.417969 C 284.574219 161.996094 284.390625 157.554688 284.242188 153.121094 C 284.121094 149.648438 284.089844 146.167969 284.167969 142.695312 C 284.246094 139.132812 284.03125 135.589844 283.902344 132.039062 C 283.734375 127.28125 283.738281 122.519531 283.707031 117.761719 C 283.683594 113.996094 283.597656 110.230469 283.769531 106.472656 C 283.875 104.125 284.472656 101.820312 284.257812 99.414062 C 283.988281 96.425781 283.988281 93.40625 283.878906 90.410156 C 283.804688 88.324219 284.808594 85.65625 282.203125 84.066406 C 281.664062 83.738281 281.929688 82.878906 281.917969 82.238281 C 281.800781 75.308594 281.871094 68.390625 282.777344 61.25 C 281.785156 61.839844 281.058594 62.472656 280.210938 62.734375 C 278.492188 63.261719 278.433594 64.40625 278.511719 65.914062 C 278.820312 71.769531 278.976562 77.632812 279.257812 83.492188 C 279.355469 85.597656 279.371094 87.679688 279.242188 89.796875 C 279.027344 93.261719 278.753906 96.746094 279.46875 100.21875 C 279.871094 102.179688 280.074219 104.203125 280.15625 106.207031 C 280.554688 116.003906 280.109375 125.800781 280.023438 135.59375 C 279.988281 139.78125 279.960938 143.972656 279.9375 148.15625 C 279.914062 153.332031 280.109375 158.527344 280.269531 163.710938 C 280.527344 172.046875 280.644531 180.378906 281.226562 188.710938 C 281.839844 197.464844 282.125 206.25 281.867188 215.035156 C 281.847656 215.632812 281.628906 216.296875 282.238281 217.039062 Z M 58.402344 173.257812 C 64.921875 174.941406 119.257812 174.378906 124.507812 172.75 C 123.804688 172.75 123.445312 172.765625 123.085938 172.75 C 119.417969 172.582031 115.800781 173.65625 112.125 173.246094 C 110.296875 173.039062 108.472656 173.039062 106.644531 173.152344 C 102.160156 173.425781 97.691406 173.113281 93.210938 172.992188 C 86.726562 172.820312 80.238281 173.160156 73.746094 173.007812 C 70.570312 172.933594 67.347656 173.261719 64.144531 173.257812 C 62.230469 173.257812 60.316406 173.257812 58.402344 173.257812 Z M 210.417969 131.925781 C 210.734375 132.214844 210.867188 132.4375 210.996094 132.433594 C 225.824219 132.070312 240.65625 131.691406 255.484375 131.308594 C 254.078125 130.753906 252.632812 130.417969 251.234375 130.554688 C 247.664062 130.90625 244.136719 130.902344 240.574219 130.40625 C 238.871094 130.167969 237.074219 130.191406 235.375 130.449219 C 230.300781 131.214844 225.234375 131.703125 220.09375 131.410156 C 216.914062 131.230469 213.75 131.648438 210.417969 131.925781 Z M 215.125 174.375 C 227.570312 173.988281 240.015625 173.597656 252.457031 173.210938 C 249.890625 172.140625 247.257812 172.257812 244.625 172.351562 C 239.601562 172.535156 234.652344 173.496094 229.578125 173.320312 C 224.761719 173.160156 219.875 172.78125 215.125 174.375 Z M 63.859375 131.859375 C 61.519531 131.589844 59.175781 131.082031 56.851562 131.859375 Z M 170.898438 132.34375 C 169.460938 132.324219 167.867188 130.933594 166.417969 132.972656 C 168.140625 132.734375 169.519531 132.539062 170.898438 132.34375 Z M 135.808594 150.125 C 135.992188 150.039062 136.210938 149.9375 136.425781 149.835938 C 136.265625 149.773438 136.105469 149.679688 135.9375 149.652344 C 135.691406 149.613281 135.410156 149.570312 135.316406 149.898438 C 135.308594 149.921875 135.605469 150.03125 135.808594 150.125 Z M 135.808594 150.125 " fill-opacity="1" fill-rule="nonzero"/></g><path fill="#000000" d="M 89.375 130.613281 C 85.308594 130.609375 81.257812 131.015625 76.894531 131.191406 C 78.148438 130.191406 86.128906 129.886719 89.375 130.613281 Z M 89.375 130.613281 " fill-opacity="1" fill-rule="nonzero"/><path stroke-linecap="butt" transform="matrix(0.53033, -0.53033, 0.53033, 0.53033, 33.714671, 154.729103)" fill="none" stroke-linejoin="miter" d="M -0.00112459 1.997554 L 2.92674 2.001237 " stroke="#000000" stroke-width="4" stroke-opacity="1" stroke-miterlimit="4"/></svg>